<svg xmlns="http://www.w3.org/2000/svg" width="639" height="703" fill="none" viewBox="0 0 639 703">
  <g clip-path="url(#a)">
    <path fill="#022BB0" d="M310.967 340.062c-28.693 0-51.951 23.259-51.951 51.952 0 28.692 23.258 51.984 51.951 51.984s51.984-23.292 51.984-51.984c0-28.693-23.291-51.952-51.984-51.952Z"/>
    <path fill="#022BB0" d="M627.701 477.45c-31.393-42.533-45.74-73.96-24.642-100.628 20.693-26.228 43.681-113.387-33.756-228.463 4.354-3.78 7.122-9.35 7.122-15.561 0-11.41-9.249-20.659-20.659-20.659-3.274 0-6.38.776-9.148 2.16-67.344-75.21-155.043-92.054-194.268-95.8C351.304 8.102 342.494 0 331.826 0c-10.498 0-19.173 7.865-20.456 18.026-99.142 5.232-165.609 47.326-204.665 82.973-32.507 29.672-51.343 59.04-59.613 73.724-8 .574-14.347 7.224-14.347 15.359 0 3.376 1.114 6.481 2.97 9.047-13.772 38.145-16.675 94.686-17.181 125.337C8.069 326.019.035 334.998.035 345.902c0 11.983 9.722 21.705 21.706 21.705.438 0 .877-.034 1.282-.068 9.823 40.238 26.398 77.336 35.613 96.24-2.126 2.7-3.443 6.076-3.443 9.755 0 8.777 7.089 15.866 15.865 15.866 8.777 0 15.866-7.089 15.866-15.866 0-8.776-7.089-15.865-15.866-15.865-2.666 0-5.164.743-7.392 1.89-9.182-18.971-24.98-54.719-34.432-93.336a21.572 21.572 0 0 0 7.528-4.726l155.043 124.628c-3.511 3.781-5.705 8.845-5.705 14.448 0 4.962 1.722 9.52 4.557 13.131l-88.779 100.493 4.76 4.22 88.644-100.358a21.046 21.046 0 0 0 12.017 3.747 21.16 21.16 0 0 0 13.098-4.523l94.585 114.231a21.15 21.15 0 0 0-7.561 16.237c0 2.633.506 5.131 1.384 7.46l-44.221 20.254c-3.072-5.367-8.844-8.979-15.494-8.979-9.857 0-17.857 8-17.857 17.857s8 17.857 17.857 17.857 17.857-8 17.857-17.857c0-.979-.102-1.924-.237-2.836l45.2-20.726c3.882 4.996 9.925 8.203 16.743 8.203 9.621 0 17.756-6.414 20.355-15.224l123.211 15.966c21.368 15.224 41.791 27.512 53.673 30.482 30.246 7.562 30.246-10.295 28.254-29.03-1.958-18.701-3.983-48.103 11.95-51.715 15.933-3.612 21.874-16.304 2.768-25.452 0 0 39.765-13.908 30.65-29.436-9.148-15.528-8.405-22.279 1.384-26.667 9.722-4.355 58.264-17.857 26.803-60.458Zm-86.315-359.438a20.299 20.299 0 0 0-5.907 11.14l-308.635 29.672c-.81-3.511-2.397-6.752-4.523-9.52L323.05 39.326c2.667 1.25 5.637 1.992 8.776 1.992 9.959 0 18.263-7.055 20.221-16.44 38.246 3.646 123.582 20.086 189.339 93.134ZM422.867 330.171l-38.921 21.807c-14.177-25.723-41.554-43.175-73.015-43.175-16.979 0-32.743 5.097-45.908 13.807l-54.112-134.621a24.67 24.67 0 0 0 10.431-7.122l201.053 132.46c-6.65 11.983.472 16.844.472 16.844ZM308.872 516.472c-5.435 0-10.093 3.072-12.456 7.562l-67.85-23.765a21.16 21.16 0 0 0-7.089-15.494l26.735-38.043c15.258 17.519 37.706 28.591 62.753 28.591 19.207 0 36.862-6.515 50.938-17.418 2.735 19.241 15.36 105.286 28.322 136.376-1.789.27-3.477.911-4.996 1.789l-63.631-59.276c.912-1.857 1.452-3.916 1.452-6.11 0-7.865-6.346-14.212-14.178-14.212ZM207.333 479.34c-3.781 0-7.325 1.013-10.431 2.735L40.644 356.434a22.221 22.221 0 0 0 2.16-5.57l185.931 28.153a82.243 82.243 0 0 0-1.013 12.996c0 18.566 6.076 35.714 16.338 49.554l-27.917 39.698c-2.7-1.216-5.671-1.925-8.81-1.925ZM48.206 205.576c8.371 0 15.156-6.683 15.426-14.988l115.042-18.937c3.072 10.296 12.591 17.79 23.899 17.79.675 0 1.384-.034 2.06-.102l55.09 137.085c-14.65 11.444-25.351 27.68-29.773 46.348L43.31 344.517c-.64-10.261-8.404-18.566-18.396-20.085.54-29.671 3.409-83.85 15.966-120.814 2.194 1.216 4.659 1.958 7.325 1.958Zm262.759 256.211c-38.516 0-69.707-31.225-69.707-69.741s31.225-69.706 69.707-69.706c38.55 0 69.741 31.224 69.741 69.706 0 38.516-31.225 69.741-69.741 69.741Zm.574-437.381a20.596 20.596 0 0 0 6.177 11.308l-99.919 109.101c-4.219-3.275-9.485-5.232-15.257-5.232-13.773 0-24.946 11.173-24.946 24.946 0 .303.033.573.033.877L62.518 184.344c-1.586-3.882-4.692-6.988-8.574-8.541 20.929-35.714 96.78-142.79 257.595-151.397Zm38.313 623.041c-.168-11.578-9.586-20.929-21.232-20.929-2.903 0-5.671.574-8.169 1.621L224.819 512.59a20.738 20.738 0 0 0 2.835-5.907l67.074 23.495c0 .168-.034.303-.034.438 0 7.832 6.347 14.178 14.178 14.178 3.308 0 6.313-1.181 8.743-3.072l62.989 58.669a14.065 14.065 0 0 0-2.363 7.797c0 7.832 6.347 14.178 14.178 14.178 5.637 0 10.431-3.308 12.726-8.068 13.267 13.334 34.668 31.394 56.373 47.597l-111.666-14.448Zm98.738-346.982s-13.165-3.375-22.55 7.596L224.954 175.466a24.891 24.891 0 0 0 2.532-10.262l307.858-29.605a20.743 20.743 0 0 0 7.055 12.963L448.59 300.465Zm125.438 99.177v9.924s-24.372-2.194-38.279-15.595c0 0 16.912-16.946 38.279-17.925v13.536s5.671 5.975 0 10.06Z"/>
    <circle cx="104.754" cy="615" r="19" fill="#022BB0"/>
  </g>
  <defs>
    <clipPath id="a">
      <path fill="#fff" d="M0 0h638.164v702.2H0z"/>
    </clipPath>
  </defs>
</svg>
